<svg width="50" height="72" viewBox="0 0 50 72" fill="none" xmlns="http://www.w3.org/2000/svg">
<g clip-path="url(#clip0_45_48)">
<path d="M49.9131 14.6769L45.3738 65.5285L24.9695 71.1851L4.62148 65.5363L0.0869141 14.6769H49.9131Z" fill="#E44D26"/>
<path d="M25 66.8613L41.4877 62.2904L45.3666 18.8353H25V66.8613Z" fill="#F16529"/>
<path d="M16.1758 31.3109H25V25.0732H9.35876L9.50798 26.7466L11.0412 43.9361H25V37.6984H16.7459L16.1758 31.3109ZM17.5816 47.055H11.3199L12.1937 56.8492L24.9713 60.396L25 60.3882V53.8984L24.9726 53.9056L18.0258 52.0298L17.5816 47.055Z" fill="#EBEBEB"/>
<path d="M4.72266 0.855408H7.89258V3.98724H10.7924V0.855408H13.9625V10.3394H10.7926V7.16361H7.89277V10.3394H4.72285L4.72266 0.855408ZM18.1309 4.00052H15.3406V0.855408H24.0934V4.00052H21.3014V10.3394H18.1314L18.1309 4.00052ZM25.4824 0.855408H28.7877L30.8209 4.18783L32.8521 0.855408H36.1588V10.3394H33.0018V5.63861L30.8209 9.01068H30.7662L28.584 5.63861V10.3394H25.4824V0.855408ZM37.7363 0.855408H40.9072V7.20463H45.365V10.3394H37.7361L37.7363 0.855408Z" fill="#EEEEEE"/>
<path d="M24.9785 43.9361H32.6595L31.9353 52.0259L24.9783 53.9037V60.3931L37.766 56.8492L37.8597 55.7952L39.3257 39.3734L39.4779 37.6984H24.9785V43.9361ZM24.9785 31.2956V31.3109H40.0455L40.1705 29.9089L40.4548 26.7466L40.6039 25.0732H24.9785V31.2958V31.2956Z" fill="white"/>
</g>
<defs>
<clipPath id="clip0_45_48">
<rect width="50" height="70.5078" fill="white" transform="translate(0 0.855408)"/>
</clipPath>
</defs>
</svg>
