<svg width="50" height="51" viewBox="0 0 50 51" fill="none" xmlns="http://www.w3.org/2000/svg">
<g clip-path="url(#clip0_45_56)">
<path d="M0 0.109314H50V50.1093H0V0.109314Z" fill="#F7DF1E"/>
<path d="M13.1469 41.8929L16.9731 39.5773C17.7114 40.8861 18.3829 41.9935 19.9936 41.9935C21.5375 41.9935 22.5112 41.3896 22.5112 39.0404V23.0642H27.2098V39.1068C27.2098 43.9734 24.3571 46.1886 20.195 46.1886C16.4362 46.1886 14.2543 44.2419 13.1467 41.8925M29.762 41.3894L33.5877 39.1743C34.595 40.8191 35.904 42.0273 38.2196 42.0273C40.1667 42.0273 41.4081 41.0538 41.4081 39.7113C41.4081 38.1003 40.1327 37.5296 37.9846 36.5902L36.8102 36.0863C33.4202 34.6435 31.1715 32.831 31.1715 29.0048C31.1715 25.4806 33.8565 22.7954 38.052 22.7954C41.0391 22.7954 43.1872 23.8361 44.7309 26.5546L41.0723 28.9042C40.2667 27.4611 39.3944 26.8906 38.0518 26.8906C36.6756 26.8906 35.803 27.7632 35.803 28.9042C35.803 30.3138 36.6756 30.8847 38.6893 31.7574L39.8639 32.2607C43.8581 33.9726 46.1067 35.7177 46.1067 39.6443C46.1067 43.8736 42.784 46.1892 38.3202 46.1892C33.9571 46.1892 31.1377 44.1083 29.7618 41.3896" fill="black"/>
</g>
<defs>
<clipPath id="clip0_45_56">
<rect width="50" height="50" fill="white" transform="translate(0 0.109314)"/>
</clipPath>
</defs>
</svg>
