<svg width="50" height="51" viewBox="0 0 50 51" fill="none" xmlns="http://www.w3.org/2000/svg">
<path d="M25 28.9749C27.1574 28.9749 28.9062 27.2261 28.9062 25.0687C28.9062 22.9113 27.1574 21.1624 25 21.1624C22.8426 21.1624 21.0938 22.9113 21.0938 25.0687C21.0938 27.2261 22.8426 28.9749 25 28.9749Z" fill="#00D8FF"/>
<path d="M25 34.0249C20.3049 34.1385 15.6216 33.5056 11.125 32.1499C9.04785 31.4915 7.11052 30.4542 5.41094 29.0906C4.76239 28.6247 4.2223 28.0241 3.82772 27.3298C3.43314 26.6356 3.19342 25.8643 3.125 25.0687C3.125 22.4859 5.9625 19.9546 10.7156 18.2984C15.3324 16.8308 20.1561 16.1195 25 16.1921C29.7792 16.1253 34.5383 16.8238 39.0969 18.2609C41.0973 18.8986 42.969 19.8857 44.625 21.1765C45.2625 21.6206 45.7945 22.1995 46.1833 22.8721C46.5721 23.5447 46.8083 24.2946 46.875 25.0687C46.875 27.7531 43.7031 30.4734 38.5938 32.164C34.1843 33.4755 29.5997 34.1031 25 34.0249ZM25 18.0609C20.3658 17.9989 15.7513 18.6751 11.3297 20.064C6.95469 21.5906 4.99375 23.6781 4.99375 25.064C4.99375 26.514 7.10156 28.7937 11.7297 30.3765C16.0314 31.6669 20.5103 32.2676 25 32.1562C29.4006 32.2349 33.7874 31.6394 38.0078 30.3906C42.8125 28.7984 45 26.5156 45 25.0687C44.9212 24.5722 44.7402 24.0974 44.4686 23.6743C44.197 23.2513 43.8406 22.8892 43.4219 22.6109C41.9402 21.4658 40.2683 20.5909 38.4828 20.0265C34.1219 18.6574 29.5703 17.9938 25 18.0609Z" fill="#00D8FF"/>
<path d="M16.125 44.5515C15.3961 44.5682 14.6758 44.3914 14.0375 44.039C11.8 42.7484 11.025 39.0265 11.9641 34.0812C12.9994 29.3485 14.7934 24.8145 17.2766 20.6546C19.6058 16.4814 22.5878 12.7076 26.1094 9.47651C27.6612 8.06198 29.4514 6.9336 31.3969 6.14369C32.1006 5.81391 32.8682 5.64296 33.6453 5.64296C34.4224 5.64296 35.1901 5.81391 35.8938 6.14369C38.2203 7.48432 38.9906 11.5906 37.9047 16.8609C36.8373 21.3368 35.0899 25.6225 32.7234 29.5687C30.4761 33.6927 27.5881 37.4336 24.1672 40.6515C22.559 42.1215 20.6927 43.2811 18.6625 44.0718C17.8497 44.3735 16.9918 44.5357 16.125 44.5515ZM18.8953 21.5828C16.5267 25.5661 14.8073 29.901 13.8016 34.4249C12.9375 38.9796 13.7672 41.7187 14.9734 42.4156C16.2234 43.139 19.2578 42.4531 22.9422 39.2343C26.2079 36.1514 28.9644 32.5706 31.1094 28.6249C33.3765 24.8523 35.0527 20.7549 36.0797 16.4749C37.1016 11.514 36.2188 8.47651 34.9656 7.75463C34.496 7.57467 33.9941 7.49411 33.4917 7.51805C32.9893 7.54199 32.4973 7.6699 32.0469 7.89369C30.3151 8.6083 28.723 9.6228 27.3438 10.8906C23.9792 13.9855 21.1308 17.5983 18.9063 21.5921L18.8953 21.5828Z" fill="#00D8FF"/>
<path d="M33.8703 44.5718C31.7531 44.5718 29.0641 43.2906 26.2641 40.8827C22.6808 37.6222 19.6484 33.8037 17.2844 29.5749C14.8324 25.4724 13.0526 21.0039 12.0125 16.339C11.5614 14.2866 11.4778 12.1705 11.7656 10.089C11.8322 9.31682 12.0673 8.56864 12.4544 7.89722C12.8416 7.2258 13.3713 6.64749 14.0063 6.20306C16.3297 4.85775 20.2719 6.24056 24.2953 9.81244C27.64 12.9721 30.4803 16.626 32.7172 20.6468C35.1677 24.6536 36.9661 29.0242 38.0453 33.5952C38.5158 35.7229 38.5884 37.9193 38.2594 40.0734C38.1811 40.8678 37.932 41.6358 37.529 42.3249C37.1261 43.014 36.5789 43.6078 35.925 44.0656C35.2971 44.4136 34.588 44.5883 33.8703 44.5718ZM18.9016 28.6343C21.1694 32.6756 24.0661 36.3302 27.4828 39.4609C30.9969 42.4843 33.7844 43.1343 34.9828 42.4296C36.2328 41.7031 37.1547 38.7374 36.2047 33.939C35.1639 29.5748 33.4389 25.4029 31.0938 21.5781C28.9591 17.7298 26.248 14.231 23.0547 11.2031C19.2672 7.84056 16.1953 7.089 14.9438 7.814C14.5537 8.131 14.2336 8.52544 14.0036 8.97242C13.7737 9.41939 13.6389 9.90918 13.6078 10.4109C13.3594 12.2673 13.4403 14.1529 13.8469 15.9812C14.8474 20.4423 16.5543 24.715 18.9031 28.6374L18.9016 28.6343Z" fill="#00D8FF"/>
</svg>
