<svg width="50" height="51" viewBox="0 0 50 51" fill="none" xmlns="http://www.w3.org/2000/svg">
<g clip-path="url(#clip0_45_80)">
<path d="M3.90625 0.109314H46.0938C48.2512 0.109314 50 1.85814 50 4.01556V46.2031C50 48.3605 48.2512 50.1093 46.0938 50.1093H3.90625C1.74883 50.1093 0 48.3605 0 46.2031V4.01556C0 1.85814 1.74883 0.109314 3.90625 0.109314Z" fill="#3178C6"/>
<path d="M29.398 39.2646V44.6591C30.2754 45.1087 31.3131 45.4458 32.5109 45.6706C33.7088 45.8954 34.9713 46.0078 36.2986 46.0078C37.592 46.0078 38.8209 45.8841 39.985 45.6369C41.149 45.3896 42.1699 44.9822 43.0471 44.4148C43.9244 43.8472 44.6189 43.1054 45.1309 42.1894C45.6426 41.2736 45.8984 40.1413 45.8984 38.7927C45.8984 37.815 45.7521 36.9579 45.4598 36.2218C45.1706 35.4907 44.7406 34.8234 44.1943 34.2579C43.6434 33.6847 42.9824 33.1706 42.2121 32.7154C41.4416 32.2603 40.5727 31.8304 39.6053 31.4259C38.8967 31.1335 38.2613 30.8499 37.6988 30.5745C37.1365 30.2992 36.6584 30.0183 36.2648 29.7316C35.8711 29.4451 35.5674 29.1415 35.3537 28.8212C35.14 28.5009 35.0332 28.1386 35.0332 27.7339C35.0332 27.363 35.1287 27.0288 35.3199 26.731C35.5111 26.4331 35.7812 26.1775 36.1299 25.964C36.4785 25.7503 36.9059 25.5847 37.4121 25.4665C37.9182 25.3486 38.4807 25.2896 39.0992 25.2896C39.5492 25.2896 40.0244 25.3234 40.5248 25.3908C41.0254 25.4581 41.5287 25.562 42.035 25.7027C42.5396 25.8426 43.033 26.0201 43.5111 26.2337C43.9747 26.4392 44.4181 26.6874 44.8355 26.9753V21.9349C44.0145 21.6203 43.1174 21.387 42.1445 21.2353C41.1717 21.0835 40.0553 21.0078 38.7955 21.0078C37.5133 21.0078 36.2986 21.1454 35.1514 21.4208C34.0041 21.696 32.9945 22.1259 32.1229 22.7103C31.2512 23.2949 30.5623 24.0394 30.0561 24.9441C29.55 25.8488 29.2969 26.9304 29.2969 28.1892C29.2969 29.7962 29.7607 31.1673 30.6889 32.3025C31.6168 33.4374 33.0254 34.3984 34.915 35.1851C35.6126 35.4692 36.3045 35.7671 36.9902 36.0786C37.6314 36.3708 38.1854 36.6742 38.6521 36.9888C39.1189 37.3035 39.4873 37.6462 39.7572 38.0171C40.0271 38.388 40.1621 38.8095 40.1621 39.2816C40.1644 39.6213 40.077 39.9556 39.909 40.2509C39.7404 40.5486 39.4844 40.8072 39.1414 41.0263C38.7984 41.2454 38.3709 41.4167 37.8592 41.5404C37.3475 41.664 36.7484 41.7259 36.0623 41.7259C34.8926 41.7259 33.7342 41.5208 32.5869 41.1105C31.4395 40.7003 30.3766 40.0851 29.398 39.2646ZM20.4066 25.8402H27.3438V21.3984H8.00781V25.8402H14.9111V45.6171H20.4066V25.8402Z" fill="white"/>
</g>
<defs>
<clipPath id="clip0_45_80">
<rect width="50" height="50" fill="white" transform="translate(0 0.109314)"/>
</clipPath>
</defs>
</svg>
