<svg width="50" height="51" viewBox="0 0 50 51" fill="none" xmlns="http://www.w3.org/2000/svg">
<path d="M35.4167 34.4218V15.5052L22.9167 24.9635M4.62507 19.2552C4.3227 18.9319 4.15105 18.5079 4.14335 18.0653C4.13565 17.6227 4.29246 17.1929 4.5834 16.8593L7.0834 14.5468C7.50007 14.1718 8.5209 14.0052 9.2709 14.5468L16.3959 19.9843L32.9167 4.88015C33.5834 4.21349 34.7292 3.94265 36.0417 4.63015L44.3751 8.60932C45.1251 9.04682 45.8334 9.73432 45.8334 11.0052V39.1302C45.8334 39.9635 45.2292 40.8593 44.5834 41.2135L35.4167 45.5885C34.7501 45.8593 33.5001 45.6093 33.0626 45.1718L16.3542 29.9635L9.2709 35.3802C8.47923 35.9218 7.50007 35.776 7.0834 35.3802L4.5834 33.0885C3.91673 32.401 4.00007 31.276 4.68757 30.5885L10.9376 24.9635" fill="#3178C6"/>
</svg>
