<svg width="32" height="33" viewBox="0 0 32 33" fill="none" xmlns="http://www.w3.org/2000/svg">
<path d="M16 3.14062C13.33 3.14063 10.7199 3.93239 8.49981 5.41579C6.27974 6.89918 4.54942 9.0076 3.52763 11.4744C2.50585 13.9412 2.2385 16.6556 2.7594 19.2743C3.28031 21.8931 4.56606 24.2986 6.45406 26.1866C8.34207 28.0746 10.7475 29.3603 13.3663 29.8812C15.985 30.4021 18.6994 30.1348 21.1662 29.113C23.633 28.0912 25.7414 26.3609 27.2248 24.1408C28.7082 21.9208 29.5 19.3107 29.5 16.6406C29.4967 13.0612 28.0733 9.62936 25.5423 7.09834C23.0113 4.56732 19.5794 3.14393 16 3.14062ZM16 27.1406C13.9233 27.1406 11.8932 26.5248 10.1665 25.3711C8.4398 24.2173 7.09399 22.5774 6.29927 20.6588C5.50455 18.7402 5.29662 16.629 5.70176 14.5922C6.10691 12.5554 7.10693 10.6845 8.57538 9.216C10.0438 7.74755 11.9148 6.74752 13.9516 6.34238C15.9884 5.93723 18.0996 6.14517 20.0182 6.93989C21.9368 7.73461 23.5767 9.08042 24.7304 10.8071C25.8842 12.5339 26.5 14.5639 26.5 16.6406C26.4967 19.4244 25.3894 22.0932 23.421 24.0616C21.4526 26.03 18.7838 27.1373 16 27.1406V27.1406ZM21.2 20.5406C20.3815 21.632 19.2403 22.4382 17.9381 22.845C16.6359 23.2517 15.2388 23.2385 13.9445 22.8071C12.6503 22.3757 11.5246 21.548 10.7269 20.4412C9.92925 19.3345 9.50001 18.0049 9.50001 16.6406C9.50001 15.2764 9.92925 13.9467 10.7269 12.84C11.5246 11.7333 12.6503 10.9056 13.9445 10.4742C15.2388 10.0428 16.6359 10.0295 17.9381 10.4363C19.2403 10.8431 20.3815 11.6492 21.2 12.7406C21.4387 13.0589 21.5412 13.4589 21.4849 13.8528C21.4287 14.2466 21.2183 14.6019 20.9 14.8406C20.5817 15.0793 20.1817 15.1818 19.7879 15.1255C19.394 15.0693 19.0387 14.8589 18.8 14.5406C18.4754 14.1045 18.0529 13.7506 17.5666 13.5075C17.0803 13.2643 16.5437 13.1387 16 13.1406C15.0717 13.1406 14.1815 13.5094 13.5251 14.1658C12.8688 14.8221 12.5 15.7124 12.5 16.6406C12.5 17.5689 12.8688 18.4591 13.5251 19.1155C14.1815 19.7719 15.0717 20.1406 16 20.1406C16.5437 20.1426 17.0803 20.0169 17.5666 19.7738C18.0529 19.5306 18.4754 19.1768 18.8 18.7406C19.0387 18.4224 19.394 18.212 19.7879 18.1557C20.1817 18.0994 20.5817 18.2019 20.9 18.4406C21.2183 18.6793 21.4287 19.0347 21.4849 19.4285C21.5412 19.8223 21.4387 20.2224 21.2 20.5406V20.5406Z" fill="url(#paint0_linear_98_589)"/>
<defs>
<linearGradient id="paint0_linear_98_589" x1="16" y1="3.14063" x2="42.8618" y2="22.7002" gradientUnits="userSpaceOnUse">
<stop stop-color="#044945"/>
<stop offset="1" stop-color="#541DBB"/>
</linearGradient>
</defs>
</svg>
