<svg width="32" height="33" viewBox="0 0 32 33" fill="none" xmlns="http://www.w3.org/2000/svg">
<path d="M8.82667 15.0273C10.7467 18.8006 13.84 21.8806 17.6133 23.814L20.5467 20.8806C20.9067 20.5206 21.44 20.4006 21.9067 20.5606C23.4 21.054 25.0133 21.3206 26.6667 21.3206C27.4 21.3206 28 21.9206 28 22.654V27.3073C28 28.0406 27.4 28.6406 26.6667 28.6406C14.1467 28.6406 4 18.494 4 5.97396C4 5.24063 4.6 4.64062 5.33333 4.64062H10C10.7333 4.64062 11.3333 5.24063 11.3333 5.97396C11.3333 7.64063 11.6 9.24063 12.0933 10.734C12.24 11.2006 12.1333 11.7206 11.76 12.094L8.82667 15.0273Z" fill="url(#paint0_linear_98_594)"/>
<defs>
<linearGradient id="paint0_linear_98_594" x1="16" y1="4.64063" x2="39.8772" y2="22.0269" gradientUnits="userSpaceOnUse">
<stop stop-color="#044945"/>
<stop offset="1" stop-color="#541DBB"/>
</linearGradient>
</defs>
</svg>
