<svg width="50" height="50" viewBox="0 0 50 50" fill="none" xmlns="http://www.w3.org/2000/svg">
<g clip-path="url(#clip0_45_33)">
<path d="M6.75133 12.7042C8.05688 11.7917 10.0249 11.9667 11.1972 12.9347L9.85272 10.9805C8.77077 9.43749 9.15827 7.76805 10.7027 6.68471C12.2472 5.60555 16.6236 8.50693 16.6236 8.50693C15.5319 6.9486 15.7361 4.9736 17.2944 3.88055C18.0436 3.35705 18.97 3.15238 19.87 3.3115C20.77 3.47062 21.5701 3.98051 22.0944 4.72916L36.5666 25.1736L34.7222 43.0555L19.3291 37.4417L5.90272 17.5347C5.6409 17.1619 5.45516 16.7412 5.35611 16.2966C5.25706 15.8519 5.24664 15.3921 5.32546 14.9435C5.40428 14.4948 5.57078 14.0661 5.81545 13.6819C6.06011 13.2976 6.37814 12.9654 6.75133 12.7042Z" fill="#90603E"/>
<path d="M3.74306 24.0778C3.74306 24.0778 2.17084 21.7861 4.4639 20.2153C6.75418 18.6445 8.32501 20.9347 8.32501 20.9347L15.6181 31.5708C15.8695 31.1514 16.1445 30.7375 16.4514 30.3292L6.32918 15.5695C6.32918 15.5695 4.75834 13.2792 7.05001 11.7083C9.34029 10.1375 10.9111 12.4278 10.9111 12.4278L20.432 26.3125C20.7861 26.0236 21.1486 25.7333 21.5222 25.4486L10.4847 9.35C10.4847 9.35 8.9139 7.05972 11.2056 5.48889C13.4958 3.91806 15.0667 6.20833 15.0667 6.20833L26.1042 22.3042C26.5097 22.0556 26.9111 21.8403 27.3139 21.6125L16.9972 6.56806C16.9972 6.56806 15.4264 4.27778 17.7167 2.70694C20.007 1.13611 21.5778 3.42639 21.5778 3.42639L32.4861 19.3347L34.1445 21.7542C27.2722 26.4681 26.6181 35.3361 30.5445 41.0625C31.3292 42.2084 32.475 41.4236 32.475 41.4236C27.7625 34.55 29.2014 26.8264 36.075 22.1139L34.0486 11.9722C34.0486 11.9722 33.2917 9.3 35.9625 8.54167C38.6347 7.78473 39.3931 10.4569 39.3931 10.4569L41.7333 17.407C42.6611 20.1625 43.6486 22.9083 44.9556 25.5056C48.6458 32.8389 46.4417 41.9528 39.4833 46.7264C31.8931 51.9306 21.5167 49.9959 16.3111 42.407L3.74306 24.0778Z" fill="#AF7E57"/>
<path d="M16.6667 44.5028C11.1111 44.5028 5.49726 38.8889 5.49726 33.3333C5.49726 32.5653 4.93476 31.9444 4.1667 31.9444C3.39865 31.9444 2.71948 32.5653 2.71948 33.3333C2.71948 41.6666 8.33337 47.2805 16.6667 47.2805C17.4348 47.2805 18.0556 46.6014 18.0556 45.8333C18.0556 45.0653 17.4348 44.5028 16.6667 44.5028Z" fill="#5DADEC"/>
<path d="M9.72222 47.2222C5.55556 47.2222 2.77778 44.4444 2.77778 40.2778C2.77778 39.9094 2.63145 39.5561 2.37098 39.2957C2.11051 39.0352 1.75725 38.8889 1.38889 38.8889C1.02053 38.8889 0.667263 39.0352 0.406796 39.2957C0.146329 39.5561 0 39.9094 0 40.2778C0 45.8333 4.16667 50 9.72222 50C10.0906 50 10.4438 49.8537 10.7043 49.5932C10.9648 49.3327 11.1111 48.9795 11.1111 48.6111C11.1111 48.2428 10.9648 47.8895 10.7043 47.629C10.4438 47.3685 10.0906 47.2222 9.72222 47.2222ZM33.3333 2.77777C32.965 2.77777 32.6117 2.9241 32.3512 3.18457C32.0908 3.44503 31.9444 3.7983 31.9444 4.16666C31.9444 4.53502 32.0908 4.88829 32.3512 5.14875C32.6117 5.40922 32.965 5.55555 33.3333 5.55555C38.8889 5.55555 44.4444 10.5403 44.4444 16.6667C44.4444 17.035 44.5908 17.3883 44.8512 17.6488C45.1117 17.9092 45.465 18.0555 45.8333 18.0555C46.2017 18.0555 46.555 17.9092 46.8154 17.6488C47.0759 17.3883 47.2222 17.035 47.2222 16.6667C47.2222 9.00833 41.6667 2.77777 33.3333 2.77777Z" fill="#5DADEC"/>
<path d="M40.2778 0.0583191C39.5111 0.0583191 38.8889 0.622208 38.8889 1.38887C38.8889 2.15554 39.5111 2.8361 40.2778 2.8361C44.4445 2.8361 47.1639 5.92637 47.1639 9.72221C47.1639 10.4889 47.8431 11.1111 48.6111 11.1111C49.3792 11.1111 49.9417 10.4889 49.9417 9.72221C49.9417 4.39304 45.8334 0.0583191 40.2778 0.0583191Z" fill="#5DADEC"/>
</g>
<defs>
<clipPath id="clip0_45_33">
<rect width="50" height="50" fill="white"/>
</clipPath>
</defs>
</svg>
