<svg width="60" height="60" viewBox="0 0 60 60" fill="none" xmlns="http://www.w3.org/2000/svg">
<rect width="60" height="60" rx="30" fill="url(#paint0_linear_45_10)"/>
<path d="M29.4988 40.64C24.8481 40.64 21.1041 40.2347 18.2668 39.424C15.4294 38.592 13.3601 37.376 12.0588 35.776C10.7788 34.1547 10.1388 32.1493 10.1388 29.76C10.1388 27.3707 10.7788 25.376 12.0588 23.776C13.3601 22.1547 15.4294 20.9387 18.2668 20.128C21.1041 19.296 24.8481 18.88 29.4988 18.88C34.1494 18.88 37.8934 19.296 40.7308 20.128C43.5681 20.9387 45.6268 22.1547 46.9068 23.776C48.2081 25.376 48.8588 27.3707 48.8588 29.76C48.8588 32.1493 48.2081 34.1547 46.9068 35.776C45.6268 37.376 43.5681 38.592 40.7308 39.424C37.8934 40.2347 34.1494 40.64 29.4988 40.64ZM29.4988 34.56C31.6961 34.56 33.5948 34.432 35.1948 34.176C36.7948 33.8987 38.0321 33.4187 38.9068 32.736C39.7814 32.032 40.2188 31.04 40.2188 29.76C40.2188 28.48 39.7814 27.4987 38.9068 26.816C38.0321 26.112 36.7948 25.632 35.1948 25.376C33.5948 25.0987 31.6961 24.96 29.4988 24.96C27.3014 24.96 25.3708 25.0987 23.7068 25.376C22.0641 25.632 20.7734 26.112 19.8348 26.816C18.9174 27.4987 18.4588 28.48 18.4588 29.76C18.4588 31.04 18.9174 32.032 19.8348 32.736C20.7734 33.4187 22.0641 33.8987 23.7068 34.176C25.3708 34.432 27.3014 34.56 29.4988 34.56Z" fill="#E6DEDC"/>
<defs>
<linearGradient id="paint0_linear_45_10" x1="30" y1="1.47549e-06" x2="89.6929" y2="43.4657" gradientUnits="userSpaceOnUse">
<stop stop-color="#006600"/>
<stop offset="1" stop-color="#0000CC"/>
</linearGradient>
</defs>
</svg>
